<?xml version="1.0" encoding="UTF-8" standalone="no"?>
<!-- Created with Inkscape (http://www.inkscape.org/) -->

<svg
   xmlns:dc="http://purl.org/dc/elements/1.1/"
   xmlns:cc="http://creativecommons.org/ns#"
   xmlns:rdf="http://www.w3.org/1999/02/22-rdf-syntax-ns#"
   xmlns:svg="http://www.w3.org/2000/svg"
   xmlns="http://www.w3.org/2000/svg"
   xmlns:xlink="http://www.w3.org/1999/xlink"
   xmlns:sodipodi="http://sodipodi.sourceforge.net/DTD/sodipodi-0.dtd"
   xmlns:inkscape="http://www.inkscape.org/namespaces/inkscape"
   width="546.08392"
   height="546.08392"
   id="svg2"
   version="1.1"
   inkscape:version="0.48.4 r9939"
   sodipodi:docname="blog_with_color_and_shadow.svg">
  <defs
     id="defs4">
    <linearGradient
       id="linearGradient3984">
      <stop
         style="stop-color:#661766;stop-opacity:1;"
         offset="0"
         id="stop3986" />
      <stop
         style="stop-color:#666666;stop-opacity:0;"
         offset="1"
         id="stop3988" />
    </linearGradient>
    <linearGradient
       id="linearGradient3974">
      <stop
         id="stop3982"
         offset="0"
         style="stop-color:#cccccc;stop-opacity:0.49803922;" />
      <stop
         style="stop-color:#cccccc;stop-opacity:0;"
         offset="1"
         id="stop3978" />
    </linearGradient>
    <filter
       inkscape:collect="always"
       id="filter3814"
       color-interpolation-filters="sRGB">
      <feGaussianBlur
         inkscape:collect="always"
         stdDeviation="16.166238"
         id="feGaussianBlur3816" />
    </filter>
    <linearGradient
       inkscape:collect="always"
       xlink:href="#linearGradient3984"
       id="linearGradient3990"
       x1="54.937256"
       y1="326.13919"
       x2="352.8638"
       y2="246.31001"
       gradientUnits="userSpaceOnUse" />
    <linearGradient
       inkscape:collect="always"
       xlink:href="#linearGradient3984"
       id="linearGradient3994"
       gradientUnits="userSpaceOnUse"
       x1="52.527924"
       y1="270.31229"
       x2="492.95444"
       y2="270.31229" />
    <linearGradient
       inkscape:collect="always"
       xlink:href="#linearGradient3984"
       id="linearGradient4002"
       x1="52.527924"
       y1="270.31229"
       x2="492.95444"
       y2="270.31229"
       gradientUnits="userSpaceOnUse" />
    <filter
       inkscape:collect="always"
       id="filter4014"
       x="0"
       width="1"
       y="0"
       height="1"
       inkscape:label="Apparition"
       inkscape:menu="Blurs"
       inkscape:menu-tooltip="Edges are partly feathered out"
       color-interpolation-filters="sRGB">
      <feGaussianBlur
         inkscape:collect="always"
         stdDeviation="3.0547012"
         id="feGaussianBlur4016"
         result="fbSourceGraphic" />
      <feColorMatrix
         result="fbSourceGraphicAlpha"
         in="fbSourceGraphic"
         values="0 0 0 -1 0 0 0 0 -1 0 0 0 0 -1 0 0 0 0 1 0"
         id="feColorMatrix4018" />
      <feMorphology
         id="feMorphology4020"
         radius="4"
         in="fbSourceGraphic"
         result="result0" />
      <feGaussianBlur
         id="feGaussianBlur4022"
         in="result0"
         stdDeviation="8"
         result="result91" />
      <feComposite
         id="feComposite4024"
         in2="result91"
         operator="in"
         in="fbSourceGraphic" />
    </filter>
  </defs>
  <sodipodi:namedview
     id="base"
     pagecolor="#ffffff"
     bordercolor="#666666"
     borderopacity="1.0"
     inkscape:pageopacity="0.0"
     inkscape:pageshadow="2"
     inkscape:zoom="0.98994949"
     inkscape:cx="207.35409"
     inkscape:cy="296.49109"
     inkscape:document-units="px"
     inkscape:current-layer="layer3"
     showgrid="false"
     showguides="true"
     inkscape:guide-bbox="true"
     guidetolerance="8"
     fit-margin-top="0"
     fit-margin-left="0"
     fit-margin-right="0"
     fit-margin-bottom="0"
     inkscape:window-width="1855"
     inkscape:window-height="1056"
     inkscape:window-x="65"
     inkscape:window-y="924"
     inkscape:window-maximized="1">
    <sodipodi:guide
       orientation="0,1"
       position="-96.950482,517.94306"
       id="guide2996" />
    <sodipodi:guide
       orientation="1,0"
       position="-87.859112,151.25769"
       id="guide2998" />
    <sodipodi:guide
       orientation="0,1"
       position="199.00005,495.9849"
       id="guide3960" />
    <sodipodi:guide
       orientation="1,0"
       position="52.527932,237.38585"
       id="guide3962" />
  </sodipodi:namedview>
  <metadata
     id="metadata7">
    <rdf:RDF>
      <cc:Work
         rdf:about="">
        <dc:format>image/svg+xml</dc:format>
        <dc:type
           rdf:resource="http://purl.org/dc/dcmitype/StillImage" />
        <dc:title></dc:title>
      </cc:Work>
    </rdf:RDF>
  </metadata>
  <g
     inkscape:label="Layer 1"
     inkscape:groupmode="layer"
     id="layer1"
     style="display:inline"
     transform="translate(-218.16879,-40.332732)">
    <path
       sodipodi:type="arc"
       style="opacity:0.77642272;fill:#666666;fill-opacity:1;stroke:none;filter:url(#filter4014)"
       id="path4004"
       sodipodi:cx="238.90108"
       sodipodi:cy="524.36566"
       sodipodi:rx="161.11932"
       sodipodi:ry="8.586297"
       d="m 400.0204,524.36566 a 161.11932,8.586297 0 1 1 -322.238646,0 161.11932,8.586297 0 1 1 322.238646,0 z"
       transform="matrix(1.0149918,0,0,0.65096207,248.72812,229.8004)" />
    <g
       id="g3818"
       transform="translate(622,-34)"
       style="fill:#389be4;fill-opacity:1">
      <path
         sodipodi:type="arc"
         style="fill:#389be4;fill-opacity:1;stroke:#000000;stroke-width:36.79999924;stroke-linecap:butt;stroke-linejoin:round;stroke-miterlimit:4;stroke-opacity:1;stroke-dasharray:none;filter:url(#filter3814)"
         id="path3772"
         sodipodi:cx="369.21075"
         sodipodi:cy="307.37469"
         sodipodi:rx="238.90108"
         sodipodi:ry="238.90108"
         d="m 608.11183,307.37469 c 0,131.94143 -106.95965,238.90108 -238.90108,238.90108 -131.94142,0 -238.90107,-106.95965 -238.90107,-238.90108 0,-131.94142 106.95965,-238.901072 238.90107,-238.901072 131.94143,0 238.90108,106.959652 238.90108,238.901072 z"
         transform="matrix(0.92212738,0,0,0.92212738,-471.24859,63.936073)" />
      <path
         transform="translate(-500,38)"
         d="m 608.11183,307.37469 c 0,131.94143 -106.95965,238.90108 -238.90108,238.90108 -131.94142,0 -238.90107,-106.95965 -238.90107,-238.90108 0,-131.94142 106.95965,-238.901072 238.90107,-238.901072 131.94143,0 238.90108,106.959652 238.90108,238.901072 z"
         sodipodi:ry="238.90108"
         sodipodi:rx="238.90108"
         sodipodi:cy="307.37469"
         sodipodi:cx="369.21075"
         id="path3002"
         style="fill:#389be4;fill-opacity:1;stroke:#ffffff;stroke-width:36.79999924;stroke-linecap:butt;stroke-linejoin:round;stroke-miterlimit:4;stroke-opacity:1;stroke-dasharray:none"
         sodipodi:type="arc" />
    </g>
    <path
       sodipodi:type="arc"
       style="fill:url(#linearGradient3990);fill-opacity:1;stroke:none"
       id="path3964"
       sodipodi:cx="272.74118"
       sodipodi:cy="270.31229"
       sodipodi:rx="220.21326"
       sodipodi:ry="220.21326"
       d="m 492.95444,270.31229 a 220.21326,220.21326 0 1 1 -440.426516,0 220.21326,220.21326 0 1 1 440.426516,0 z"
       transform="matrix(0.25881905,-0.96592582,0.96592582,0.25881905,159.21774,504.1308)" />
    <path
       transform="matrix(0,1,-1,0,761.22226,37.903843)"
       d="m 492.95444,270.31229 a 220.21326,220.21326 0 1 1 -440.426516,0 220.21326,220.21326 0 1 1 440.426516,0 z"
       sodipodi:ry="220.21326"
       sodipodi:rx="220.21326"
       sodipodi:cy="270.31229"
       sodipodi:cx="272.74118"
       id="path3996"
       style="fill:url(#linearGradient4002);fill-opacity:1;stroke:none"
       sodipodi:type="arc" />
  </g>
  <g
     inkscape:groupmode="layer"
     id="layer2"
     inkscape:label="talk_skull"
     style="display:inline"
     transform="translate(-218.16879,-40.332732)">
    <path
       style="fill:#ffffff;fill-opacity:1;stroke:none"
       d="m 491.21076,136.98407 c -81.17326,0 -146.96875,62.85928 -146.96875,140.40625 0,38.93665 16.57978,74.15943 43.375,99.59375 l 0,86 c 1.60141,0.92811 3.23356,1.83299 4.875,2.71875 l 0,-63.59375 21.625,0 c 6.83032,8e-5 11.99898,0.52981 15.5,1.59375 3.53526,1.06411 6.40008,3.20811 8.5625,6.46875 2.16232,3.22647 3.24995,8.44841 3.25,15.65625 -5e-5,4.87397 -0.79925,8.26544 -2.34375,10.1875 -1.51028,1.92216 -4.50369,3.40784 -9,4.4375 5.01117,1.13272 8.40263,3.01339 10.1875,5.65625 1.78476,2.60861 2.68745,6.63944 2.6875,12.0625 l 0,7.71875 c -5e-5,5.62905 -0.66452,9.78846 -1.96875,12.5 -0.93532,1.99695 -2.28951,3.52761 -4.0625,4.59375 3.14595,0.81119 6.34239,1.57708 9.5625,2.25 l 0,-73.125 21.6875,0 0,66.65625 13.1875,0 0,10.8125 c 2.67842,0.11831 5.38231,0.1658 8.09375,0.1875 -0.37517,-0.42426 -0.75273,-0.85239 -1.09375,-1.3125 -2.16238,-2.91748 -3.46312,-6.0989 -3.875,-9.53125 -0.41188,-3.43232 -0.59375,-9.41913 -0.59375,-18 l 0,-14.28125 c 0,-8.37484 0.18494,-14.28328 0.5625,-17.75 0.41188,-3.50091 1.62809,-6.71051 3.6875,-9.59375 2.09372,-2.88308 4.93343,-5.08037 8.46875,-6.625 3.53529,-1.54447 7.64142,-2.31241 12.34375,-2.3125 4.462,9e-5 8.46466,0.74293 12,2.21875 3.56959,1.44166 6.43133,3.61384 8.59375,6.53125 2.16232,2.91756 3.46307,6.09898 3.875,9.53125 0.41183,3.4324 0.5937,9.41922 0.59375,18 l 0,14.28125 c -5e-5,8.37493 -0.18192,14.31154 -0.59375,17.8125 -0.28981,2.66063 -1.10562,5.12059 -2.40625,7.4375 5.1184,-0.94278 10.15567,-2.056 15.09375,-3.34375 -1.87018,-1.41337 -3.38813,-3.0338 -4.53125,-4.84375 -1.64753,-2.60857 -2.68187,-5.33865 -3.09375,-8.1875 -0.41188,-2.88314 -0.59375,-7.17422 -0.59375,-12.90625 l 0,-24.78125 c 0,-7.96296 0.42316,-13.73973 1.28125,-17.34375 0.85808,-3.60388 3.29358,-6.88879 7.34375,-9.875 4.08446,-3.02037 9.35968,-4.53116 15.8125,-4.53125 6.34979,9e-5 11.62501,1.29776 15.8125,3.90625 4.1874,2.60865 6.91748,5.70862 8.1875,9.3125 1.26991,3.5697 1.9062,8.76346 1.90625,15.59375 l 0,3.625 -21.6875,0 0,-7.59375 c -3e-5,-4.77088 -0.1819,-7.73611 -0.59375,-8.9375 -0.41191,-1.20125 -1.39298,-1.81243 -2.9375,-1.8125 -1.33864,7e-5 -2.2695,0.53287 -2.75,1.5625 -0.48055,1.02977 -0.71878,3.65022 -0.71875,7.90625 l 0,40 c -3e-5,3.74127 0.2382,6.2362 0.71875,7.4375 0.4805,1.16701 1.46464,1.75001 2.90625,1.75 1.57884,1e-5 2.63829,-0.69263 3.1875,-2.03125 0.58346,-1.3386 0.87497,-3.93394 0.875,-7.8125 l 0,-9.875 -4.375,0 0,-12.6875 25.375,0 0,25.90625 c 1.16856,-0.61479 2.31995,-1.23869 3.46875,-1.875 l 0,-84.90625 c 28.60067,-25.61787 46.46875,-62.02794 46.46875,-102.4375 0,-77.54697 -65.79549,-140.40625 -146.96875,-140.40625 z m -59.21875,127.3125 c 19.52621,0 35.34375,15.81754 35.34375,35.34375 0,19.52621 -15.81754,35.375 -35.34375,35.375 -19.52621,0 -35.375,-15.84879 -35.375,-35.375 0,-19.52621 15.84879,-35.34375 35.375,-35.34375 z m 124,0 c 19.52621,0 35.34375,15.81754 35.34375,35.34375 0,19.52621 -15.81754,35.375 -35.34375,35.375 -19.52621,0 -35.375,-15.84879 -35.375,-35.375 0,-19.52621 15.84879,-35.34375 35.375,-35.34375 z m -61.25,85.375 29,43.15625 -58,0 29,-43.15625 z m -80.5625,66.6875 0,18.53125 c 0.9267,-0.0343 1.64137,-0.0312 2.15625,-0.0312 2.12802,5e-5 3.47897,-0.53275 4.0625,-1.5625 0.58346,-1.06397 0.87497,-4.05738 0.875,-9 -3e-5,-2.60851 -0.23826,-4.43898 -0.71875,-5.46875 -0.48056,-1.06396 -1.11684,-1.72534 -1.90625,-2 -0.75514,-0.27452 -2.23776,-0.43436 -4.46875,-0.46875 z m 94.875,8.09375 c -1.1327,7e-5 -2.00721,0.45141 -2.625,1.34375 -0.58352,0.85815 -0.87503,3.4284 -0.875,7.71875 l 0,38.9375 c -3e-5,4.83961 0.18492,7.80484 0.5625,8.9375 0.41185,1.13268 1.33964,1.71876 2.78125,1.71875 1.47587,1e-5 2.43184,-0.66445 2.84375,-1.96875 0.41185,-1.30427 0.62497,-4.40424 0.625,-9.3125 l 0,-38.3125 c -3e-5,-3.87847 -0.24133,-6.34216 -0.6875,-7.40625 -0.41191,-1.09828 -1.28642,-1.65618 -2.625,-1.65625 z m -94.875,23.40625 0,23.34375 c 3.05475,-0.10296 4.98871,-0.5794 5.8125,-1.4375 0.85805,-0.85807 1.28122,-2.98004 1.28125,-6.34375 l 0,-7.78125 c -3e-5,-3.5696 -0.36992,-5.7136 -1.125,-6.46875 -0.75515,-0.75508 -2.74238,-1.20949 -5.96875,-1.3125 z"
       id="path3823"
       inkscape:connector-curvature="0" />
  </g>
  <g
     inkscape:groupmode="layer"
     id="layer3"
     inkscape:label="stars">
    <path
       sodipodi:type="spiral"
       style="fill:none;stroke:#ffffff;stroke-width:6.19999980999999956;stroke-linecap:round;stroke-linejoin:miter;stroke-miterlimit:4;stroke-opacity:1;stroke-dasharray:none;opacity:0.30487805"
       id="path4071"
       sodipodi:cx="74.751289"
       sodipodi:cy="154.14473"
       sodipodi:expansion="1"
       sodipodi:revolution="3"
       sodipodi:radius="80.717445"
       sodipodi:argument="-18.064157"
       sodipodi:t0="0"
       d="m 74.751289,154.14473 c 2.861692,2.86169 -2.445647,5.26936 -4.756322,4.75632 -6.261786,-1.39031 -7.268405,-9.41088 -4.756317,-14.26897 4.493536,-8.68997 16.162272,-9.70799 23.781606,-4.75631 11.181684,7.2668 12.219904,23.00525 4.756313,33.29425 -9.947791,13.71361 -29.880746,14.76261 -42.806892,4.75631 -16.266234,-12.59191 -17.321257,-36.77174 -4.756306,-52.31953 15.217839,-18.83047 43.671451,-19.88914 61.832179,-4.75631 21.40178,17.83352 22.4628,50.57661 4.7563,71.34482 -20.442857,23.97772 -57.485401,25.04033 -80.857462,4.7563 -26.5568212,-23.04801 -27.6205719,-64.39674 -4.756297,-90.3701 25.650262,-29.138192 71.309941,-30.202776 99.882749,-4.7563 31.72122,28.25042 32.78644,78.22454 4.75629,109.39539"
       transform="translate(354.56354,176.7767)" />
    <path
       transform="matrix(-1,0,0,1,197.44152,176.7767)"
       d="m 74.751289,154.14473 c 2.861692,2.86169 -2.445647,5.26936 -4.756322,4.75632 -6.261786,-1.39031 -7.268405,-9.41088 -4.756317,-14.26897 4.493536,-8.68997 16.162272,-9.70799 23.781606,-4.75631 11.181684,7.2668 12.219904,23.00525 4.756313,33.29425 -9.947791,13.71361 -29.880746,14.76261 -42.806892,4.75631 -16.266234,-12.59191 -17.321257,-36.77174 -4.756306,-52.31953 15.217839,-18.83047 43.671451,-19.88914 61.832179,-4.75631 21.40178,17.83352 22.4628,50.57661 4.7563,71.34482 -20.442857,23.97772 -57.485401,25.04033 -80.857462,4.7563 -26.5568212,-23.04801 -27.6205719,-64.39674 -4.756297,-90.3701 25.650262,-29.138192 71.309941,-30.202776 99.882749,-4.7563 31.72122,28.25042 32.78644,78.22454 4.75629,109.39539"
       sodipodi:t0="0"
       sodipodi:argument="-18.064157"
       sodipodi:radius="80.717445"
       sodipodi:revolution="3"
       sodipodi:expansion="1"
       sodipodi:cy="154.14473"
       sodipodi:cx="74.751289"
       id="path4073"
       style="opacity:0.30487809;fill:none;stroke:#ffffff;stroke-width:6.19999981;stroke-linecap:round;stroke-linejoin:miter;stroke-miterlimit:4;stroke-opacity:1;stroke-dasharray:none"
       sodipodi:type="spiral" />
    <path
       sodipodi:type="spiral"
       style="opacity:0.3;fill:none;stroke:#ffffff;stroke-width:2.29999995;stroke-linecap:butt;stroke-linejoin:miter;stroke-miterlimit:4;stroke-opacity:1;stroke-dasharray:none"
       id="path4075"
       sodipodi:cx="385.87827"
       sodipodi:cy="130.91122"
       sodipodi:expansion="1"
       sodipodi:revolution="3"
       sodipodi:radius="20.800314"
       sodipodi:argument="-17.802359"
       sodipodi:t0="0"
       d="m 385.87827,130.91122 c 0.52144,0.90318 -0.9602,1.1485 -1.50114,0.86668 -1.46591,-0.7637 -1.18153,-2.82725 -0.23222,-3.86894 1.69808,-1.86334 4.67046,-1.33849 6.23675,0.40222 2.2986,2.55457 1.50734,6.54131 -1.03667,8.60458 -3.39077,2.75001 -8.42229,1.68167 -10.97239,-1.67113 -3.20904,-4.21917 -1.85896,-10.30819 2.30558,-13.3402 5.04382,-3.67217 12.19688,-2.03796 15.70802,2.94003 4.13775,5.86639 2.21802,14.08731 -3.57449,18.07583 -6.68769,4.6049 -15.97891,2.39882 -20.44364,-4.20894 -5.07312,-7.50816 -2.58012,-17.87132 4.84339,-22.81146 8.32806,-5.54209 19.76432,-2.76177 25.17927,5.47785 6.01162,9.14755 2.94371,21.65777 -6.1123,27.54708"
       transform="matrix(-1,0,0,1,725.54666,128.20815)" />
    <path
       sodipodi:type="star"
       style="opacity:0.61382117;fill:#ffffff;fill-opacity:1;stroke:#ffde00;stroke-width:0;stroke-linecap:round;stroke-linejoin:round;stroke-miterlimit:4;stroke-opacity:1;stroke-dasharray:none"
       id="path4086"
       sodipodi:sides="36"
       sodipodi:cx="202.03052"
       sodipodi:cy="252.12953"
       sodipodi:r1="26.745207"
       sodipodi:r2="13.372604"
       sodipodi:arg1="1.380808"
       sodipodi:arg2="1.4680745"
       inkscape:flatsided="false"
       inkscape:rounded="0"
       inkscape:randomized="0"
       d="m 207.08128,278.3935 -3.67952,-12.96185 -0.9579,13.43989 -1.37282,-13.40387 -3.27716,13.06938 0.97559,-13.43863 -5.49685,12.30175 3.29437,-13.06505 -7.54951,11.16034 5.51304,-12.2945 -9.3728,9.67983 7.56421,-11.15039 -10.91129,7.9052 9.38553,-9.66748 -12.11824,5.89038 10.92168,-7.89083 -12.95699,3.69658 12.12599,-5.87442 -13.40206,1.39047 12.96185,-3.67952 -13.4399,-0.95791 13.40388,-1.37281 -13.06938,-3.27717 13.43863,0.9756 -12.30176,-5.49685 13.06506,3.29437 -11.16035,-7.54952 12.29451,5.51304 -9.67983,-9.37279 11.15039,7.5642 -7.9052,-10.91129 9.66748,9.38554 -5.89038,-12.11825 7.89083,10.92169 -3.69658,-12.957 5.87442,12.12599 -1.39047,-13.40205 3.67952,12.96185 0.95791,-13.4399 1.37281,13.40387 3.27717,-13.06938 -0.9756,13.43863 5.49685,-12.30175 -3.29437,13.06505 7.54952,-11.16034 -5.51304,12.2945 9.37279,-9.67983 -7.5642,11.15039 10.91129,-7.9052 -9.38554,9.66748 12.11825,-5.89038 -10.92169,7.89083 12.957,-3.69658 -12.12599,5.87442 13.40205,-1.39046 -12.96185,3.67952 13.4399,0.9579 -13.40387,1.37282 13.06937,3.27716 -13.43862,-0.97559 12.30175,5.49684 -13.06505,-3.29436 11.16034,7.54951 -12.2945,-5.51304 9.67983,9.3728 -11.15039,-7.56421 7.9052,10.91129 -9.66748,-9.38553 5.89038,12.11824 -7.89083,-10.92168 3.69658,12.95699 -5.87442,-12.12599 z"
       transform="translate(11.111678,7.0913729)" />
  </g>
</svg>
