<?xml version="1.0" encoding="UTF-8" standalone="no"?>
<!-- Created with Inkscape (http://www.inkscape.org/) -->

<svg
   xmlns:dc="http://purl.org/dc/elements/1.1/"
   xmlns:cc="http://creativecommons.org/ns#"
   xmlns:rdf="http://www.w3.org/1999/02/22-rdf-syntax-ns#"
   xmlns:svg="http://www.w3.org/2000/svg"
   xmlns="http://www.w3.org/2000/svg"
   xmlns:sodipodi="http://sodipodi.sourceforge.net/DTD/sodipodi-0.dtd"
   xmlns:inkscape="http://www.inkscape.org/namespaces/inkscape"
   width="603.80786"
   height="865.96875"
   id="svg2"
   version="1.1"
   inkscape:version="0.48.4 r9939"
   sodipodi:docname="jmr1.svg">
  <defs
     id="defs4" />
  <sodipodi:namedview
     id="base"
     pagecolor="#ffffff"
     bordercolor="#666666"
     borderopacity="1.0"
     inkscape:pageopacity="0.0"
     inkscape:pageshadow="2"
     inkscape:zoom="0.24748737"
     inkscape:cx="341.30296"
     inkscape:cy="362.00581"
     inkscape:document-units="px"
     inkscape:current-layer="layer1"
     showgrid="false"
     inkscape:window-width="1855"
     inkscape:window-height="1056"
     inkscape:window-x="65"
     inkscape:window-y="924"
     inkscape:window-maximized="1"
     fit-margin-top="0"
     fit-margin-left="0"
     fit-margin-right="0"
     fit-margin-bottom="0" />
  <metadata
     id="metadata7">
    <rdf:RDF>
      <cc:Work
         rdf:about="">
        <dc:format>image/svg+xml</dc:format>
        <dc:type
           rdf:resource="http://purl.org/dc/dcmitype/StillImage" />
        <dc:title />
      </cc:Work>
    </rdf:RDF>
  </metadata>
  <g
     inkscape:label="Layer 1"
     inkscape:groupmode="layer"
     id="layer1"
     transform="translate(-164.09608,-80.005938)">
    <path
       style="fill:#000000;stroke:#000000;stroke-width:1px;stroke-linecap:butt;stroke-linejoin:miter;stroke-opacity:1"
       d="m 435.83868,170.45013 c -43.13164,3.74679 -87.20537,13.69805 -125.25892,34.34518 -35.63826,19.33663 -69.65223,46.28773 -90.91372,80.81221 -14.43322,23.43669 -23.9474,52.41371 -21.2132,79.80204 6.19295,62.03442 79.62582,105.42508 82.8325,167.68533 3.52918,68.52193 -83.47356,125.34044 -71.72082,192.93914 8.14547,46.85071 50.88326,85.07552 91.92388,109.09647 57.39274,33.5918 130.43655,48.67861 195.96959,37.37565 60.38088,-10.41434 114.92014,-49.95839 158.59395,-92.93405 42.97245,-42.28549 79.22232,-96.09001 93.94419,-154.55334 20.25516,-80.43701 17.24919,-171.31352 -13.13198,-248.49752 -25.73878,-65.38989 -78.65347,-120.1197 -135.36045,-161.6244 -26.44019,-19.35198 -59.10434,-29.5178 -90.91372,-37.37565 -24.29793,-6.00231 -49.81686,-9.23709 -74.75129,-7.07106 z"
       id="path2996"
       inkscape:connector-curvature="0"
       sodipodi:nodetypes="aaaaaaaaaaaaaa" />
    <path
       style="fill:#000000;stroke:#000000;stroke-width:1px;stroke-linecap:butt;stroke-linejoin:miter;stroke-opacity:1"
       d="m 216.18886,415.85628 c 0,0 -26.02977,-24.68121 -34.22263,-40.2783 -10.28333,-19.5768 -18.46827,-41.97834 -17.24964,-64.05803 1.2697,-23.00495 5.00525,-38.09518 25.20831,-64.35915 20.20305,-26.26397 29.89693,-30.91813 37.78881,-51.40049 6.60819,-17.15073 7.20461,-40.39044 -8.5615,-54.47056 -8.69912,-7.11356 -26.19686,-8.27619 -26.19686,-8.27619 0,0 29.17032,-12.28737 45.64595,17.88162 2.10753,-7.63757 1.18203,-10.09402 -0.18908,-14.85116 -3.17588,-11.01888 -10.47147,-20.6518 -17.93765,-29.3557 -6.09548,-7.105962 -21.4583,-18.121472 -21.4583,-18.121472 0,0 20.66433,9.33677 29.53952,16.223722 6.90642,5.35922 12.91045,11.9799 17.93765,19.13162 4.35838,6.20025 10.34137,20.24856 10.34137,20.24856 0,0 5.30973,-18.92216 3.80076,-28.32978 -1.95574,-12.193 -16.16244,-33.335032 -16.16244,-33.335032 0,0 21.46397,18.564782 26.26397,31.314722 5.33994,14.18416 1.01015,45.45687 1.01015,45.45687 0,0 -2.3109,12.09029 -9.38198,24.21212 -7.07107,12.12183 -34.8322,56.77082 -42.63126,84.03355 -8.44887,29.53427 -6.10643,47.69074 0.96464,59.81257 7.07107,12.12183 34.33994,36.66135 34.33994,36.66135 z"
       id="path2998"
       inkscape:connector-curvature="0"
       sodipodi:nodetypes="caasscccaacaacacacssscc" />
    <path
       sodipodi:nodetypes="caasscccaacaacacacssscc"
       inkscape:connector-curvature="0"
       id="path3019"
       d="m 715.81114,413.85628 c 0,0 26.02977,-24.68121 34.22263,-40.2783 10.28332,-19.5768 18.46826,-41.97834 17.24964,-64.05803 -1.2697,-23.00495 -5.00526,-38.09518 -25.20831,-64.35915 -20.20305,-26.26397 -29.89693,-30.91813 -37.78881,-51.40049 -6.6082,-17.15073 -7.20461,-40.39044 8.5615,-54.47056 8.69912,-7.11356 26.19686,-8.27619 26.19686,-8.27619 0,0 -29.17032,-12.28737 -45.64595,17.88162 -2.10753,-7.63757 -1.18203,-10.09402 0.18908,-14.85116 3.17588,-11.01888 10.47147,-20.6518 17.93765,-29.3557 6.09547,-7.105962 21.4583,-18.121472 21.4583,-18.121472 0,0 -20.66433,9.33677 -29.53953,16.223722 -6.90642,5.35922 -12.91044,11.9799 -17.93764,19.13162 -4.35838,6.20025 -10.34137,20.24856 -10.34137,20.24856 0,0 -5.30973,-18.92216 -3.80076,-28.32978 1.95574,-12.193 16.16244,-33.335032 16.16244,-33.335032 0,0 -21.46397,18.56478 -26.26397,31.314722 -5.33994,14.18416 -1.01015,45.45687 -1.01015,45.45687 0,0 2.31091,12.09029 9.38198,24.21212 7.07107,12.12183 34.83221,56.77082 42.63126,84.03355 8.44887,29.53427 6.10643,47.69074 -0.96464,59.81257 -7.07107,12.12183 -34.33994,36.66135 -34.33994,36.66135 z"
       style="fill:#000000;stroke:#000000;stroke-width:1px;stroke-linecap:butt;stroke-linejoin:miter;stroke-opacity:1" />
    <g
       transform="matrix(0.99729827,-0.07345861,0.07345861,0.99729827,-77.458838,-26.843854)"
       id="g3805">
      <path
         transform="matrix(0.74740564,0,0,0.74740564,132.65499,156.42036)"
         d="m 536.39101,385.82724 c 0,16.17886 -13.11556,29.29442 -29.29442,29.29442 -16.17887,0 -29.29443,-13.11556 -29.29443,-29.29442 0,-16.17886 13.11556,-29.29442 29.29443,-29.29442 16.17886,0 29.29442,13.11556 29.29442,29.29442 z"
         sodipodi:ry="29.294424"
         sodipodi:rx="29.294424"
         sodipodi:cy="385.82724"
         sodipodi:cx="507.09659"
         id="path3027"
         style="fill:#ffffff;fill-opacity:1;stroke:none"
         sodipodi:type="arc" />
      <path
         sodipodi:type="arc"
         style="fill:#ffffff;fill-opacity:1;stroke:none"
         id="path3797"
         sodipodi:cx="507.09659"
         sodipodi:cy="385.82724"
         sodipodi:rx="29.294424"
         sodipodi:ry="29.294424"
         d="m 536.39101,385.82724 c 0,16.17886 -13.11556,29.29442 -29.29442,29.29442 -16.17887,0 -29.29443,-13.11556 -29.29443,-29.29442 0,-16.17886 13.11556,-29.29442 29.29443,-29.29442 16.17886,0 29.29442,13.11556 29.29442,29.29442 z"
         transform="matrix(0.66279368,0,0,0.66279368,65.117907,193.13062)" />
    </g>
    <path
       style="fill:#ffffff;stroke:#000000;stroke-width:0.96916568px;stroke-linecap:butt;stroke-linejoin:miter;stroke-opacity:1"
       d="m 334.5879,441.88187 c 0,0 20.73983,22.28447 76.14469,25.99749 40.19536,-1.30029 67.77122,-16.83255 97.54074,-41.60513 0,0 -5.30318,22.1768 -11.85433,31.14924 -9.61768,13.17236 -22.52558,26.20078 -38.2577,30.50323 -30.29466,8.28504 -66.85534,6.03968 -93.31019,-13.07234 -12.49801,-9.02905 -30.26321,-32.97249 -30.26321,-32.97249 z"
       id="path3799"
       inkscape:connector-curvature="0"
       sodipodi:nodetypes="cccaasc" />
    <path
       style="fill:none;stroke:#ffffff;stroke-width:4.2329998;stroke-linecap:butt;stroke-linejoin:miter;stroke-miterlimit:4;stroke-opacity:1;stroke-dasharray:none"
       d="m 515.44566,235.70342 c 0,0 13.89215,-18.38327 24.3754,-21.19886 11.55211,-3.10268 25.87503,-0.58308 35.28617,6.66887 6.84937,5.2779 11.02549,14.7608 10.8409,23.28915 -0.30782,14.22353 -2.22354,20.24002 -19.7447,38.05794"
       id="path3811"
       inkscape:connector-curvature="0"
       sodipodi:nodetypes="caaac" />
    <path
       sodipodi:nodetypes="caaac"
       inkscape:connector-curvature="0"
       id="path3813"
       d="m 471.86914,241.62135 c 0,0 9.1703,-12.13492 16.09036,-13.99351 7.62562,-2.0481 17.08027,-0.38489 23.29263,4.40217 4.52131,3.48397 7.278,9.7437 7.15615,15.37332 -0.20319,9.38904 -1.46777,13.36057 -13.03361,25.12229"
       style="fill:none;stroke:#ffffff;stroke-width:2.79423094;stroke-linecap:butt;stroke-linejoin:miter;stroke-miterlimit:4;stroke-opacity:1;stroke-dasharray:none" />
    <path
       sodipodi:nodetypes="caaac"
       inkscape:connector-curvature="0"
       id="path3815"
       d="m 621.2312,403.16491 c 0,0 20.44269,-10.63167 31.11878,-8.67024 11.76461,2.16141 23.61578,10.59019 28.99842,21.18206 3.91746,7.70866 3.61437,18.06596 -0.21636,25.68779 -6.38883,12.71166 -10.70361,17.32153 -34.18042,25.88356"
       style="fill:none;stroke:#ffffff;stroke-width:4.2329998;stroke-linecap:butt;stroke-linejoin:miter;stroke-miterlimit:4;stroke-opacity:1;stroke-dasharray:none" />
    <path
       style="fill:#000000;stroke:#000000;stroke-width:1px;stroke-linecap:butt;stroke-linejoin:miter;stroke-opacity:1"
       d="m 604.44405,622.09262 c 0,0 -20.14486,29.67989 -24.81007,46.66895 -5.85556,21.32392 -9.05686,44.9581 -3.14133,66.26548 6.16344,22.20026 13.04182,36.14147 38.39742,57.47344 25.3556,21.33198 35.82091,23.80378 47.91326,42.12273 10.12543,15.33921 15.68142,37.91288 3.29376,55.04082 -6.97525,8.8104 -23.8188,13.69069 -23.8188,13.69069 0,0 31.12406,5.76014 40.76171,-27.23577 3.69317,7.0096 3.31481,9.60721 2.99351,14.54756 -0.74421,11.44325 -5.80931,22.41429 -11.23984,32.51434 -4.43355,8.24579 -17.08311,22.29381 -17.08311,22.29381 0,0 18.18749,-13.54272 25.38324,-22.16944 5.59952,-6.71307 10.0476,-14.46525 13.42783,-22.52712 2.93053,-6.98933 5.76851,-21.99255 5.76851,-21.99255 0,0 9.23615,17.34747 9.77541,26.86008 0.69892,12.32905 -8.65418,36.02157 -8.65418,36.02157 0,0 16.99377,-22.72806 18.95403,-36.20984 2.18077,-14.99832 -8.7412,-44.61993 -8.7412,-44.61993 0,0 -4.84475,-11.31565 -14.34612,-21.64342 -9.50138,-10.32777 -46.17443,-48.00136 -59.62713,-72.96346 -14.57359,-27.04195 -16.17097,-45.27908 -11.85784,-58.63331 4.31313,-13.35425 25.6987,-43.1609 25.6987,-43.1609 z"
       id="path3016"
       inkscape:connector-curvature="0"
       sodipodi:nodetypes="caasscccaacaacacacssscc" />
    <path
       sodipodi:nodetypes="caasscccaacaacacacssscc"
       inkscape:connector-curvature="0"
       id="path3018"
       d="m 379.78967,622.9279 c 0,0 8.38757,34.87635 6.76365,52.4193 -2.03828,22.01915 -7.37489,45.26443 -20.42262,63.11813 -13.59451,18.60185 -24.94629,29.2229 -56.19453,40.24591 -31.24824,11.02302 -41.91303,9.64651 -59.68739,22.52599 -14.88321,10.78452 -28.04092,29.94997 -22.48721,50.34547 3.42122,10.70386 17.4627,21.20907 17.4627,21.20907 0,0 -31.15639,-5.58267 -28.54233,-39.85775 -5.92731,5.25748 -6.48904,7.82169 -7.93012,12.5581 -3.33795,10.97087 -2.46598,23.02319 -0.94496,34.38929 1.24178,9.27941 8.12641,26.88509 8.12641,26.88509 0,0 -12.24513,-19.08525 -15.93745,-29.69496 -2.87325,-8.25617 -4.30265,-17.07878 -4.62358,-25.81473 -0.27824,-7.57372 2.35547,-22.61415 2.35547,-22.61415 0,0 -14.75905,12.97736 -18.6174,21.68905 -5.00072,11.29101 -4.6011,36.75974 -4.6011,36.75974 0,0 -7.88972,-27.25996 -4.97104,-40.56719 3.247,-14.80413 23.91094,-38.67317 23.91094,-38.67317 0,0 8.52306,-8.88104 21.05547,-15.19591 12.53241,-6.31487 60.13275,-28.6402 81.52219,-47.25668 23.17162,-20.16762 31.09603,-36.67059 31.76795,-50.68798 0.67192,-14.0174 -8.83201,-49.44979 -8.83201,-49.44979 z"
       style="fill:#000000;stroke:#000000;stroke-width:1px;stroke-linecap:butt;stroke-linejoin:miter;stroke-opacity:1" />
    <path
       style="fill:none;stroke:#ffffff;stroke-width:4.2329998;stroke-linecap:butt;stroke-linejoin:miter;stroke-miterlimit:4;stroke-opacity:1;stroke-dasharray:none"
       d="m 647.47847,608.90764 c 0,0 22.28546,5.85612 28.8767,14.48059 7.26328,9.50383 10.38069,23.70862 7.25323,35.17071 -2.27611,8.34202 -9.45796,15.81106 -17.41558,18.88406 -13.27163,5.12514 -19.56459,5.64174 -42.70747,-3.78569"
       id="path3020"
       inkscape:connector-curvature="0"
       sodipodi:nodetypes="caaac" />
  </g>
</svg>
